<?xml version="1.0" standalone="no"?><!DOCTYPE svg PUBLIC "-//W3C//DTD SVG 1.1//EN" "http://www.w3.org/Graphics/SVG/1.1/DTD/svg11.dtd"><svg t="1547195499086" class="icon" style="" viewBox="0 0 1024 1024" version="1.1" xmlns="http://www.w3.org/2000/svg" p-id="5438" xmlns:xlink="http://www.w3.org/1999/xlink" width="200" height="200"><defs><style type="text/css"></style></defs><path d="M760.27904 334.27456c0 12.24704-9.9328 22.15936-22.15936 22.15936L308.87936 356.43392c-12.24704 0-22.15936-9.9328-22.15936-22.15936l0 0c0-12.24704 9.9328-22.15936 22.15936-22.15936l429.24032 0C750.34624 312.1152 760.27904 322.048 760.27904 334.27456L760.27904 334.27456z" p-id="5439" fill="#44A3F3"></path><path d="M760.27904 473.53856c0 12.24704-9.9328 22.15936-22.15936 22.15936L308.87936 495.69792c-12.24704 0-22.15936-9.9328-22.15936-22.15936l0 0c0-12.24704 9.9328-22.15936 22.15936-22.15936l429.24032 0C750.34624 451.35872 760.27904 461.29152 760.27904 473.53856L760.27904 473.53856z" p-id="5440" fill="#44A3F3"></path><path d="M624.08704 612.78208c0 12.24704-9.9328 22.15936-22.15936 22.15936L308.87936 634.94144c-12.24704 0-22.15936-9.9328-22.15936-22.15936l0 0c0-12.24704 9.9328-22.15936 22.15936-22.15936l293.04832 0C614.15424 590.62272 624.08704 600.53504 624.08704 612.78208L624.08704 612.78208z" p-id="5441" fill="#44A3F3"></path><path d="M803.7376 100.78208 243.24096 100.78208c-43.9296 0-79.68768 36.59776-79.68768 81.55136l0 711.7824c0 12.288 9.728 22.24128 21.72928 22.24128 1.20832 0 2.39616-0.12288 3.56352-0.32768 1.2288 0.2048 2.4576 0.32768 3.6864 0.32768 4.7104 0 9.44128-1.55648 13.43488-4.77184l108.93312-72.13056 89.47712 72.13056c7.8848 6.3488 19.00544 6.3488 26.89024 0l92.83584-74.83392 89.98912 72.54016c7.8848 6.3488 19.00544 6.3488 26.89024 0l89.41568-72.06912 110.57152 73.44128c4.25984 3.44064 9.37984 4.95616 14.39744 4.73088 1.98656 0.6144 4.096 0.96256 6.28736 0.96256 12.00128 0 21.72928-9.97376 21.72928-22.24128L883.38432 182.33344C883.42528 137.37984 847.68768 100.78208 803.7376 100.78208zM839.96672 853.1968l-96.09216-61.76768c-7.90528-6.3488-19.00544-6.3488-26.89024 0l-89.41568 72.06912-89.98912-72.54016c-7.90528-6.3488-19.00544-6.3488-26.89024 0l-92.83584 74.83392-89.47712-72.13056c-7.90528-6.3488-19.00544-6.3488-26.89024 0l-94.45376 60.43648L207.03232 182.33344c0-20.43904 16.26112-37.0688 36.22912-37.0688l560.49664 0c19.968 0 36.22912 16.62976 36.22912 37.0688L839.9872 853.1968z" p-id="5442" fill="#44A3F3"></path></svg>