<?xml version="1.0" standalone="no"?><!DOCTYPE svg PUBLIC "-//W3C//DTD SVG 1.1//EN" "http://www.w3.org/Graphics/SVG/1.1/DTD/svg11.dtd"><svg t="1547195244619" class="icon" style="" viewBox="0 0 1024 1024" version="1.1" xmlns="http://www.w3.org/2000/svg" p-id="2005" xmlns:xlink="http://www.w3.org/1999/xlink" width="200" height="200"><defs><style type="text/css"></style></defs><path d="M433.284541 78.764687c195.415188 0 354.44109 159.025902 354.44109 354.44109S628.699729 787.646867 433.284541 787.646867s-354.44109-159.025902-354.44109-354.44109S237.869354 78.764687 433.284541 78.764687m0-78.764687a433.205777 433.205777 0 1 0 0 866.411553 433.205777 433.205777 0 1 0 0-866.411553zM817.577447 778.116339a39.382343 39.382343 0 0 0-27.882699 67.186278l167.059901 167.059901a39.224814 39.224814 0 0 0 55.765398 0 39.382343 39.382343 0 0 0 0-55.686634l-167.0599-167.0599a39.224814 39.224814 0 0 0-27.8827-11.499645z" fill="#ffffff" p-id="2006"></path></svg>