<?xml version="1.0" standalone="no"?><!DOCTYPE svg PUBLIC "-//W3C//DTD SVG 1.1//EN" "http://www.w3.org/Graphics/SVG/1.1/DTD/svg11.dtd"><svg t="1547195678708" class="icon" style="" viewBox="0 0 1024 1024" version="1.1" xmlns="http://www.w3.org/2000/svg" p-id="7645" xmlns:xlink="http://www.w3.org/1999/xlink" width="200" height="200"><defs><style type="text/css"></style></defs><path d="M153.6 434.688a349.696 349.696 0 0 1 68.608-204.8 38.4 38.4 0 0 0-61.952-45.568 426.496 426.496 0 0 0-83.968 256v14.848a140.288 140.288 0 0 0-73.216 122.88v94.208a140.8 140.8 0 0 0 140.8 140.8H153.6a140.8 140.8 0 0 0 140.8-140.8v-96.768A140.8 140.8 0 0 0 153.6 434.688z m63.488 235.008A64 64 0 0 1 153.6 733.696h-9.216a64 64 0 0 1-64-64v-94.208A64 64 0 0 1 144.384 512H153.6a64 64 0 0 1 64 64zM937.984 447.488v-9.216a430.592 430.592 0 0 0-10.752-95.232 424.448 424.448 0 0 0-30.208-87.04A433.152 433.152 0 0 0 507.392 7.68a425.472 425.472 0 0 0-169.984 34.816 38.4 38.4 0 0 0 30.72 70.656 348.672 348.672 0 0 1 139.264-28.672 358.4 358.4 0 0 1 320.512 204.8A346.112 346.112 0 0 1 851.968 358.4a352.256 352.256 0 0 1 8.704 75.776 140.288 140.288 0 0 0-130.56 139.776v94.208a139.776 139.776 0 0 0 51.2 105.984 245.248 245.248 0 0 1-134.144 75.776 112.128 112.128 0 0 0-98.304-59.392H467.968a112.128 112.128 0 0 0 0 224.768h78.848a112.64 112.64 0 0 0 110.08-89.6 312.32 312.32 0 0 0 194.048-118.272 139.264 139.264 0 0 0 20.48 0h8.704a140.8 140.8 0 0 0 140.8-140.8v-91.136a140.8 140.8 0 0 0-82.944-128z m-391.168 492.032H467.968a35.328 35.328 0 0 1 0-71.168h78.848a35.328 35.328 0 0 1 0 71.168z m397.312-269.824a64 64 0 0 1-64 64H870.4a64 64 0 0 1-64-64v-94.208A64 64 0 0 1 870.4 512h8.704a64 64 0 0 1 64 64z" fill="#438CFF" p-id="7646"></path></svg>